<svg width="14" height="20" viewBox="0 0 14 20" fill="none" xmlns="http://www.w3.org/2000/svg">
<path d="M7.00002 1.66669H4.08335C3.30981 1.66669 2.56794 1.97398 2.02096 2.52096C1.47398 3.06794 1.16669 3.80981 1.16669 4.58335C1.16669 5.3569 1.47398 6.09877 2.02096 6.64575C2.56794 7.19273 3.30981 7.50002 4.08335 7.50002M7.00002 1.66669V7.50002M7.00002 1.66669H9.91669C10.2997 1.66669 10.679 1.74213 11.0328 1.8887C11.3867 2.03528 11.7082 2.25012 11.9791 2.52096C12.2499 2.7918 12.4648 3.11333 12.6113 3.46719C12.7579 3.82106 12.8334 4.20033 12.8334 4.58335C12.8334 4.96638 12.7579 5.34565 12.6113 5.69951C12.4648 6.05338 12.2499 6.37491 11.9791 6.64575C11.7082 6.91659 11.3867 7.13143 11.0328 7.278C10.679 7.42458 10.2997 7.50002 9.91669 7.50002M7.00002 7.50002H4.08335M7.00002 7.50002H9.91669M7.00002 7.50002V13.3334M4.08335 7.50002C3.30981 7.50002 2.56794 7.80731 2.02096 8.35429C1.47398 8.90127 1.16669 9.64314 1.16669 10.4167C1.16669 11.1902 1.47398 11.9321 2.02096 12.4791C2.56794 13.0261 3.30981 13.3334 4.08335 13.3334M9.91669 7.50002C9.53366 7.50002 9.15439 7.57546 8.80053 7.72204C8.44666 7.86861 8.12513 8.08345 7.85429 8.35429C7.58345 8.62513 7.36861 8.94666 7.22204 9.30053C7.07546 9.65439 7.00002 10.0337 7.00002 10.4167C7.00002 10.7997 7.07546 11.179 7.22204 11.5328C7.36861 11.8867 7.58345 12.2082 7.85429 12.4791C8.12513 12.7499 8.44666 12.9648 8.80053 13.1113C9.15439 13.2579 9.53366 13.3334 9.91669 13.3334C10.2997 13.3334 10.679 13.2579 11.0328 13.1113C11.3867 12.9648 11.7082 12.7499 11.9791 12.4791C12.2499 12.2082 12.4648 11.8867 12.6113 11.5328C12.7579 11.179 12.8334 10.7997 12.8334 10.4167C12.8334 10.0337 12.7579 9.65439 12.6113 9.30053C12.4648 8.94666 12.2499 8.62513 11.9791 8.35429C11.7082 8.08345 11.3867 7.86861 11.0328 7.72204C10.679 7.57546 10.2997 7.50002 9.91669 7.50002ZM4.08335 13.3334C3.30981 13.3334 2.56794 13.6406 2.02096 14.1876C1.47398 14.7346 1.16669 15.4765 1.16669 16.25C1.16669 17.0236 1.47398 17.7654 2.02096 18.3124C2.56794 18.8594 3.30981 19.1667 4.08335 19.1667C4.8569 19.1667 5.59877 18.8594 6.14575 18.3124C6.69273 17.7654 7.00002 17.0236 7.00002 16.25V13.3334M4.08335 13.3334H7.00002" stroke="#7F56D9" stroke-width="1.66667" stroke-linecap="round" stroke-linejoin="round"/>
</svg>
